first trial
nRows=32
nColumns=38

# SIMM Motion File Header:
name Sujet_06_velo_60.mvnx
datacolumns 38
datarows 32
otherdata 1
range 11.7000 12.2170
endheader
time pelvis_tilt  pelvis_list  pelvis_rotation  pelvis_tx  pelvis_ty  pelvis_tz  hip_flexion_r  hip_adduction_r  hip_rotation_r  knee_angle_r  ankle_angle_r  subtalar_angle_r  mtp_angle_r  hip_flexion_l  hip_adduction_l  hip_rotation_l  knee_angle_l  ankle_angle_l  subtalar_angle_l  mtp_angle_l  lumbar_extension  lumbar_bending  lumbar_rotation  arm_flex_r  arm_add_r  arm_rot_r  elbow_flex_r  pro_sup_r  wrist_flex_r  wrist_dev_r  arm_flex_l  arm_add_l  arm_rot_l  elbow_flex_l  pro_sup_l  wrist_flex_l  wrist_dev_l
11.7000	-8.3599	2.2995	-8.4455	0.0000	1.2500	-0.0000	44.5134	0.6931	-3.3711	69.0041	-2.8802	-1.9938	-0.0000	78.9719	-4.1298	3.3053	84.4674	-4.1513	-0.3918	-0.0000	-15.4027	-1.5215	-1.7637	88.5261	10.4130	16.1548	2.6212	116.9479	-19.7109	-10.5185	87.9150	-5.1214	33.2677	9.7651	117.0866	-18.8217	-6.8451	
11.7170	-8.3342	2.2478	-8.6637	0.0000	1.2500	-0.0000	45.8401	0.9545	-2.7684	72.8822	-1.7128	-2.4202	0.0000	77.1470	-4.0454	2.7158	81.2058	-4.3487	-0.2595	0.0000	-15.3812	-1.4969	-1.7342	88.4898	10.5974	15.6871	2.6051	117.2150	-19.6434	-10.3804	87.9416	-5.1802	33.1616	9.7703	117.2300	-18.8000	-6.8470	
11.7330	-8.3337	2.2121	-8.9238	0.0000	1.2500	-0.0000	47.2597	1.2311	-2.1990	76.7548	-0.5361	-2.8556	-0.0000	75.1203	-3.9795	2.1452	77.8207	-4.6412	-0.1189	0.0000	-15.3411	-1.4866	-1.6947	88.3946	10.8351	15.1086	2.5916	117.5818	-19.5804	-10.2238	88.0013	-5.2648	33.1170	9.7360	117.2882	-18.7912	-6.8566	
11.7500	-8.3534	2.1649	-9.1911	0.0000	1.2500	-0.0000	48.7959	1.5424	-1.7138	80.5520	0.4605	-3.2330	-0.0000	72.9280	-3.9216	1.5302	74.3223	-5.0060	-0.0080	0.0000	-15.2911	-1.4761	-1.6431	88.3045	11.0492	14.5779	2.5894	117.9572	-19.5219	-10.0874	88.0269	-5.3509	33.2510	9.6695	117.1222	-18.7987	-6.8825	
11.7670	-8.4003	2.0958	-9.4528	0.0000	1.2500	-0.0000	50.4585	1.8790	-1.3218	84.2899	1.2481	-3.5372	-0.0000	70.5485	-3.8423	0.8467	70.6644	-5.4072	0.0046	-0.0000	-15.2285	-1.4563	-1.5796	88.2316	11.2222	14.1038	2.6052	118.3482	-19.4625	-9.9754	87.9954	-5.4406	33.6681	9.5622	116.6070	-18.8299	-6.9350	
11.7830	-8.4672	2.0148	-9.7220	0.0000	1.2500	-0.0000	52.2385	2.2455	-1.0205	87.9537	1.8593	-3.7740	0.0000	68.0041	-3.7585	0.1162	66.8906	-5.8813	-0.0140	-0.0000	-15.1561	-1.4362	-1.5039	88.1630	11.3722	13.6777	2.6316	118.7476	-19.4081	-9.8839	87.9307	-5.5321	34.2638	9.4253	115.8682	-18.8775	-7.0038	
11.8000	-8.5282	1.9259	-10.0026	0.0000	1.2500	-0.0000	54.1311	2.6779	-0.8467	91.4288	2.1981	-3.9048	0.0000	65.3956	-3.7307	-0.6584	63.1439	-6.5128	0.0992	-0.0000	-15.0915	-1.4280	-1.4135	88.1244	11.4771	13.4320	2.6559	119.0424	-19.3772	-9.8398	87.8352	-5.5944	34.8416	9.2949	115.1422	-18.9233	-7.0657	
11.8170	-8.5779	1.8281	-10.3001	0.0000	1.2500	-0.0000	56.1596	3.1763	-0.8573	94.7121	2.2069	-3.8548	-0.0000	62.7276	-3.7767	-1.5018	59.4235	-7.3743	0.4279	0.0000	-15.0383	-1.4360	-1.3043	88.1246	11.5170	13.4915	2.6728	119.1487	-19.3885	-9.8745	87.6808	-5.5958	35.3636	9.1684	114.4669	-18.9578	-7.1107	
11.8330	-8.6214	1.7226	-10.6090	0.0000	1.2500	-0.0000	58.3027	3.7273	-1.0080	97.8125	1.9459	-3.6932	0.0000	59.9925	-3.8676	-2.4022	55.7246	-8.3985	0.8864	-0.0000	-14.9925	-1.4561	-1.1803	88.1548	11.5121	13.7312	2.6877	119.1505	-19.4235	-9.9568	87.4957	-5.5676	35.8683	9.0483	113.8044	-18.9905	-7.1488	
11.8500	-8.6490	1.6163	-10.9156	0.0000	1.2500	-0.0000	60.4889	4.3490	-1.1859	100.6335	1.4943	-3.5987	0.0000	57.2704	-4.0019	-3.3033	52.1855	-9.4586	1.3830	0.0000	-14.9603	-1.4882	-1.0509	88.2136	11.5003	13.9087	2.7039	119.1867	-19.4444	-10.0203	87.3655	-5.5725	36.2726	8.9755	113.2776	-19.0318	-7.1867	
11.8670	-8.6505	1.5080	-11.2092	0.0000	1.2500	-0.0000	62.7323	5.0621	-1.3965	103.1504	0.6997	-3.6438	-0.0000	54.5373	-4.2107	-4.2470	48.7871	-10.5193	1.9066	0.0000	-14.9478	-1.5354	-0.9202	88.3051	11.4860	13.9081	2.7291	119.3291	-19.4378	-10.0411	87.3524	-5.6462	36.5371	8.9793	112.9576	-19.0893	-7.2276	
11.8830	-8.6361	1.3994	-11.5003	0.0000	1.2500	-0.0000	65.0219	5.8418	-1.6461	105.3871	-0.2866	-3.7560	0.0000	51.8125	-4.4619	-5.2005	45.5496	-11.6177	2.4671	0.0000	-14.9485	-1.5949	-0.7841	88.4253	11.4650	13.8452	2.7554	119.5058	-19.4171	-10.0431	87.3935	-5.7530	36.7008	9.0282	112.7728	-19.1554	-7.2682	
11.9000	-8.6257	1.3025	-11.8077	0.0000	1.2500	-0.0000	67.2451	6.6535	-1.8167	107.3162	-0.9324	-3.8931	-0.0000	49.2433	-4.6802	-5.9869	42.6734	-12.7294	3.0053	-0.0000	-14.9503	-1.6585	-0.6403	88.5600	11.4628	13.8254	2.7630	119.6393	-19.3843	-10.0307	87.3864	-5.8495	36.7972	9.0721	112.6324	-19.2170	-7.3053	
11.9170	-8.6238	1.2202	-12.1462	0.0000	1.2500	-0.0000	69.3874	7.5111	-1.8113	108.9390	-1.0254	-4.0471	-0.0000	46.8314	-4.8680	-6.4955	40.1636	-13.8944	3.5312	0.0000	-14.9486	-1.7259	-0.4841	88.7058	11.4928	13.9119	2.7422	119.6764	-19.3447	-10.0100	87.2698	-5.9157	36.8061	9.1066	112.5325	-19.2762	-7.3395	
11.9330	-8.6261	1.1495	-12.5009	0.0000	1.2500	-0.0000	71.4608	8.4167	-1.7286	110.2509	-0.7741	-4.2384	-0.0000	44.5749	-5.0524	-6.8318	38.0176	-15.0713	4.0428	0.0000	-14.9479	-1.7975	-0.3201	88.8660	11.5417	14.0415	2.7029	119.6704	-19.2932	-9.9752	87.1048	-5.9714	36.7477	9.1360	112.4770	-19.3309	-7.3703	
11.9500	-8.6407	1.0945	-12.8461	0.0000	1.2500	-0.0000	73.3915	9.3174	-1.7323	111.2163	-0.2785	-4.4602	-0.0000	42.6198	-5.2026	-7.1331	36.4231	-16.1100	4.4649	-0.0000	-14.9494	-1.8655	-0.1604	89.0368	11.5945	14.1303	2.6554	119.7041	-19.2162	-9.9132	86.9727	-6.0326	36.7155	9.1232	112.3867	-19.3621	-7.3928	
11.9670	-8.6798	1.0642	-13.1879	0.0000	1.2500	-0.0000	75.1714	10.2100	-1.9005	111.8236	0.5326	-4.7181	-0.0000	41.0092	-5.3020	-7.4323	35.4303	-16.9490	4.7556	-0.0000	-14.9521	-1.9335	-0.0060	89.2307	11.6494	14.1140	2.5987	119.8389	-19.0963	-9.8083	86.9043	-6.1093	36.7478	9.0478	112.2248	-19.3551	-7.4009	
11.9830	-8.7316	1.0492	-13.5202	0.0000	1.2500	-0.0000	76.8105	11.0891	-2.1437	112.0863	1.5849	-4.9990	0.0000	39.7012	-5.3780	-7.6856	34.9884	-17.6461	4.9593	-0.0000	-14.9572	-1.9983	0.1441	89.4354	11.7082	14.0568	2.5337	120.0132	-18.9518	-9.6771	86.8689	-6.1914	36.8064	8.9297	112.0277	-19.3245	-7.4003	
12.0000	-8.7680	1.0265	-13.7990	0.0000	1.2500	-0.0000	78.2635	11.8913	-2.3616	112.0064	2.5588	-5.2566	-0.0000	38.7154	-5.4620	-7.9123	35.1341	-18.2292	5.1247	-0.0000	-14.9699	-2.0411	0.2810	89.6101	11.7611	14.0675	2.4742	120.1260	-18.8227	-9.5539	86.8558	-6.2653	36.8702	8.7927	111.8265	-19.2956	-7.4040	
12.0170	-8.7787	0.9835	-14.0086	0.0000	1.2500	-0.0000	79.5386	12.6017	-2.4959	111.5798	3.3693	-5.4839	-0.0000	38.0867	-5.5664	-8.1237	35.9427	-18.6859	5.2480	-0.0000	-14.9950	-2.0519	0.4052	89.7263	11.8034	14.2272	2.4264	120.1074	-18.7253	-9.4511	86.8780	-6.3261	36.9450	8.6250	111.6200	-19.2749	-7.4164	
12.0330	-8.7738	0.9331	-14.1647	0.0000	1.2500	-0.0000	80.6241	13.2378	-2.5860	110.8105	4.1023	-5.6878	0.0000	37.7801	-5.6895	-8.3039	37.3393	-19.0272	5.3251	0.0000	-15.0281	-2.0408	0.5162	89.8121	11.8400	14.4551	2.3841	120.0272	-18.6429	-9.3557	86.9227	-6.3789	37.0252	8.4387	111.4095	-19.2559	-7.4331	
12.0500	-8.7562	0.8905	-14.2716	0.0000	1.2500	-0.0000	81.4428	13.7874	-2.6731	109.7123	4.6965	-5.8499	-0.0000	37.7096	-5.8403	-8.4326	39.1356	-19.3171	5.3986	-0.0000	-15.0605	-2.0200	0.6036	89.9115	11.8763	14.6171	2.3421	119.9939	-18.5660	-9.2634	86.9406	-6.4242	37.0732	8.2942	111.2302	-19.2449	-7.4537	
12.0670	-8.7206	0.8603	-14.3281	0.0000	1.2500	-0.0000	81.9808	14.2522	-2.7580	108.2652	5.0919	-5.9631	0.0000	37.8688	-6.0286	-8.5213	41.3306	-19.5879	5.4885	0.0000	-15.0914	-1.9882	0.6624	90.0445	11.9193	14.6402	2.2944	120.0678	-18.4885	-9.1672	86.8854	-6.4520	37.0570	8.2189	111.1015	-19.2450	-7.4784	
12.0830	-8.6723	0.8379	-14.3356	0.0000	1.2500	-0.0000	82.2488	14.6320	-2.8265	106.4884	5.3484	-6.0338	0.0000	38.2646	-6.2463	-8.5554	43.9252	-19.8047	5.5625	0.0000	-15.1216	-1.9466	0.6975	90.1915	11.9619	14.5972	2.2472	120.1886	-18.4163	-9.0739	86.8035	-6.4719	37.0086	8.1854	111.0041	-19.2532	-7.5070	
12.1000	-8.6291	0.8251	-14.3017	0.0000	1.2500	-0.0000	82.2071	14.9108	-2.8982	104.4533	5.5846	-6.0640	0.0000	38.8310	-6.4729	-8.4771	46.7335	-19.9316	5.5869	-0.0000	-15.1451	-1.9114	0.7132	90.3374	11.9889	14.5731	2.2141	120.2846	-18.3576	-8.9998	86.7844	-6.5147	36.9868	8.1719	110.9153	-19.2665	-7.5382	
12.1170	-8.5992	0.8275	-14.2296	0.0000	1.2500	-0.0000	81.8196	15.0821	-2.9899	102.1622	5.8687	-6.0387	-0.0000	39.5485	-6.6953	-8.2587	49.7087	-19.9535	5.5550	0.0000	-15.1606	-1.8913	0.7090	90.4733	11.9994	14.6464	2.1930	120.2903	-18.3196	-8.9575	86.8896	-6.6105	37.0128	8.1794	110.8328	-19.2846	-7.5734	
12.1330	-8.5744	0.8393	-14.1163	0.0000	1.2500	-0.0000	81.1217	15.1544	-3.0831	99.6097	6.1320	-5.9728	-0.0000	40.4389	-6.9197	-7.9269	52.8981	-19.8859	5.4692	0.0000	-15.1693	-1.8775	0.6854	90.6082	11.9942	14.7387	2.1858	120.2711	-18.2949	-8.9341	87.0577	-6.7293	37.0658	8.2069	110.7589	-19.3080	-7.6112	
12.1500	-8.5481	0.8462	-13.9615	0.0000	1.2500	-0.0000	80.1809	15.1336	-3.1470	96.8566	6.2867	-5.9101	0.0000	41.4978	-7.1530	-7.5064	56.2580	-19.7408	5.3182	-0.0000	-15.1692	-1.8600	0.6484	90.7538	11.9609	14.6999	2.2118	120.3509	-18.2698	-8.9086	87.1937	-6.8120	37.1413	8.2285	110.6769	-19.3339	-7.6457	
12.1670	-8.5147	0.8407	-13.7551	0.0000	1.2500	-0.0000	79.0051	15.0143	-3.1622	93.9083	6.3095	-5.8673	0.0000	42.7394	-7.3926	-6.9928	59.8279	-19.4910	5.0740	0.0000	-15.1561	-1.8327	0.5978	90.9276	11.8886	14.4124	2.2816	120.6213	-18.2255	-8.8575	87.2532	-6.8379	37.2294	8.2361	110.5793	-19.3627	-7.6732	
12.1830	-8.4799	0.8301	-13.5072	0.0000	1.2500	-0.0000	77.5884	14.8027	-3.1589	90.7597	6.2235	-5.8247	0.0000	44.1525	-7.6277	-6.3897	63.5713	-19.1676	4.7686	0.0000	-15.1341	-1.8019	0.5337	91.1112	11.7874	13.9941	2.3834	120.9901	-18.1807	-8.8040	87.2806	-6.8275	37.3399	8.2381	110.4737	-19.3942	-7.6973	
12.2000	-8.4551	0.8220	-13.2491	0.0000	1.2500	-0.0000	75.9777	14.5227	-3.1801	87.4575	6.0111	-5.7713	0.0000	45.6937	-7.8552	-5.7344	67.3308	-18.8696	4.4868	-0.0000	-15.1133	-1.7762	0.4626	91.2639	11.6770	13.6478	2.5038	121.3065	-18.1779	-8.7967	87.3133	-6.7835	37.4975	8.2335	110.3668	-19.4252	-7.7229	
12.2170	-8.4438	0.8149	-12.9758	0.0000	1.2500	-0.0000	74.1826	14.1811	-3.2509	83.9966	5.6407	-5.6889	0.0000	47.3691	-8.0693	-5.0340	71.0948	-18.6440	4.2647	-0.0000	-15.1011	-1.7552	0.3841	91.3882	11.5521	13.4442	2.6579	121.5277	-18.2461	-8.8636	87.3740	-6.6985	37.7466	8.2136	110.2366	-19.4554	-7.7534	
